<svg height="511pt" viewBox="-77 1 511 511.99901" width="511pt" xmlns="http://www.w3.org/2000/svg" fill="#4296bd">
    <path d="m357.207031 371.574219v-352.910157c0-10.289062-8.375-18.664062-18.667969-18.664062h-289.15625c-26.953124 0-48.882812 21.929688-48.882812 48.882812v372.753907c0 26.953125 21.925781 48.878906 48.882812 48.878906h.109376v33.972656c0 2.828125 1.589843 5.417969 4.109374 6.699219 2.523438 1.277344 5.554688 1.03125 7.835938-.636719l20.589844-15.058593 20.59375 15.058593c1.3125.960938 2.867187 1.449219 4.433594 1.449219 1.160156 0 2.324218-.269531 3.398437-.8125 2.523437-1.28125 4.113281-3.871094 4.113281-6.699219v-33.972656h223.972656c10.292969 0 18.664063-8.371094 18.664063-18.664063v-43.886718c0-4.148438-3.363281-7.511719-7.511719-7.511719-4.148437 0-7.511718 3.363281-7.511718 7.511719v43.886718c0 2.011719-1.632813 3.644532-3.644532 3.644532h-223.96875v-18.804688h193.816406c4.148438 0 7.511719-3.363281 7.511719-7.507812 0-4.148438-3.363281-7.511719-7.511719-7.511719h-271.429687c-4.148437 0-7.511719 3.363281-7.511719 7.511719 0 4.144531 3.363282 7.507812 7.511719 7.507812h12.539063v18.804688h-.109376c-18.671874 0-33.863281-15.191406-33.863281-33.859375v-8.691407c0-18.671874 15.191407-33.859374 33.863281-33.859374h300.3125c4.148438 0 7.511719-3.363282 7.511719-7.511719zm-257.660156 65.117187v53l-13.082031-9.566406c-1.320313-.964844-2.878906-1.449219-4.433594-1.449219-1.558594 0-3.117188.484375-4.4375 1.449219l-13.082031 9.566406v-53zm-84.023437-58.949218v-328.859376c0-18.671874 15.1875-33.863281 33.859374-33.863281h289.15625c2.011719 0 3.644532 1.636719 3.644532 3.644531v345.398438h-292.800782c-13.136718 0-25.070312 5.21875-33.859374 13.679688zm0 0" />
    <path d="m57.988281 392.40625c-4.148437 0-7.511719 3.363281-7.511719 7.511719 0 4.148437 3.363282 7.511719 7.511719 7.511719h156.289063c4.148437 0 7.511718-3.363282 7.511718-7.511719 0-4.148438-3.363281-7.511719-7.511718-7.511719zm0 0" />
    <path d="m249.566406 392.40625c-4.148437 0-7.511718 3.363281-7.511718 7.511719 0 4.148437 3.363281 7.511719 7.511718 7.511719h58.816406c4.148438 0 7.511719-3.363282 7.511719-7.511719 0-4.148438-3.363281-7.511719-7.511719-7.511719zm0 0" />
    <path d="m100 252.0625h-13.320312c-2.902344 0-3.75 2.625-3.75 5.25s.75 5.34375 3.75 5.34375h7.222656c2.15625 0 2.71875.75 2.625 3.09375-.1875 4.503906-1.59375 12.753906-12.375 12.753906-12.003906 0-13.320313-14.628906-13.320313-22.882812 0-9.84375 1.597657-22.785156 13.320313-22.785156 6.28125 0 9.09375 3 10.5 8.34375.65625 2.4375 2.25 3.472656 7.503906 3.472656 4.78125 0 6-2.628906 5.4375-5.628906-2.160156-11.0625-10.316406-17.160157-23.445312-17.160157-19.128907 1.03125-26.160157 14.628907-26.160157 33.757813 0 18.757812 7.40625 33.855468 26.628907 33.855468 18.285156 0 24.757812-13.222656 24.101562-29.355468-.1875-5.058594-1.875-8.058594-8.71875-8.058594zm0 0" />
    <path d="m160.289062 222.519531c-3.09375 0-6.1875.941407-6.1875 4.316407v39.195312c0 7.128906-4.035156 12.285156-11.347656 12.285156s-11.253906-5.15625-11.253906-12.285156v-39.195312c0-3.375-3.09375-4.316407-6.191406-4.316407-3.09375 0-6.1875.941407-6.1875 4.316407v38.070312c0 17.441406 9.847656 24.664062 23.632812 24.664062 13.875 0 23.722656-7.222656 23.722656-24.664062v-38.070312c0-3.375-3.09375-4.316407-6.1875-4.316407zm0 0" />
    <path d="m184.851562 222.519531c-3.09375 0-6.1875.941407-6.1875 4.316407v58.140624c0 3.46875 3.09375 4.40625 6.1875 4.40625s6.28125-.9375 6.28125-4.40625v-58.140624c0-3.375-3.1875-4.316407-6.28125-4.316407zm0 0" />
    <path d="m225.453125 222.894531h-12.941406c-4.78125 0-9.1875 1.21875-9.1875 8.253907v49.042968c0 7.128906 4.40625 8.347656 9.1875 8.347656h12.941406c18.660156 0 25.972656-15.378906 25.972656-32.820312 0-17.445312-7.5-32.824219-25.972656-32.824219zm0 54.296875h-8.160156c-1.03125 0-1.59375-.375-1.59375-1.59375v-39.855468c0-1.21875.5625-1.59375 1.59375-1.59375h8.160156c10.21875 0 13.222656 12.378906 13.222656 21.570312 0 9.1875-2.722656 21.472656-13.222656 21.472656zm0 0" />
    <path d="m274.867188 234.148438h20.910156c3.191406 0 3.941406-2.8125 3.941406-5.625s-.84375-5.625-3.941406-5.625h-25.785156c-4.691407 0-9.191407 1.21875-9.191407 8.25v49.136718c0 7.035156 4.5 8.253906 9.191407 8.253906h25.785156c3.09375 0 3.941406-2.8125 3.941406-5.625s-.75-5.628906-3.941406-5.628906h-20.910156c-1.125 0-1.59375-.375-1.59375-1.59375v-15.472656h19.035156c3.09375 0 3.9375-2.8125 3.9375-5.625s-.84375-5.625-3.9375-5.625h-19.035156v-13.222656c0-1.222656.46875-1.597656 1.59375-1.597656zm0 0" />
    <path d="m255.121094 38.066406c-37.265625 0-67.585938 30.320313-67.585938 67.585938 0 37.269531 30.320313 67.589844 67.585938 67.589844 37.269531 0 67.589844-30.320313 67.589844-67.589844 0-37.265625-30.320313-67.585938-67.589844-67.585938zm0 120.15625c-28.984375 0-52.566406-23.582031-52.566406-52.566406 0-28.988281 23.582031-52.570312 52.566406-52.570312 28.988281 0 52.570312 23.582031 52.570312 52.570312 0 28.984375-23.582031 52.566406-52.570312 52.566406zm0 0" />
    <path d="m162.039062 55.300781-6.996093 7c-8.628907-10.328125-20.183594-17.890625-33.269531-21.632812-17.359376-4.960938-35.613282-2.867188-51.394532 5.898437-15.785156 8.765625-27.207031 23.152344-32.167968 40.511719-10.242188 35.832031 10.574218 73.320313 46.410156 83.5625 6.183594 1.769531 12.414062 2.609375 18.550781 2.609375 29.40625 0 56.535156-19.371094 65.011719-49.019531 1.316406-4.609375 2.144531-9.347657 2.464844-14.085938.074218-1.089843.113281-2.683593.113281-4.492187 0-4.144532-3.359375-7.507813-7.511719-7.507813-4.148438 0-7.507812 3.363281-7.507812 7.507813 0 1.4375-.03125 2.734375-.082032 3.480468-.25 3.6875-.894531 7.378907-1.921875 10.96875-7.964843 27.871094-37.121093 44.0625-64.992187 36.097657-27.867188-7.96875-44.0625-37.125-36.09375-64.992188 3.855468-13.5 12.742187-24.691406 25.019531-31.507812 12.273437-6.816407 26.46875-8.449219 39.96875-4.589844 10.617187 3.035156 19.929687 9.300781 26.722656 17.867187l-43.242187 43.242188-20.5625-20.558594c-2.933594-2.933594-7.6875-2.933594-10.621094 0s-2.933594 7.6875 0 10.621094l25.871094 25.871094c1.46875 1.464844 3.390625 2.199218 5.3125 2.199218s3.84375-.730468 5.308594-2.199218l66.230468-66.230469c2.933594-2.933594 2.933594-7.6875 0-10.621094-2.933594-2.933593-7.6875-2.933593-10.621094 0zm0 0" />
    <path d="m287.285156 74.886719c-2.9375-2.933594-7.691406-2.933594-10.625 0l-21.460937 21.464843-21.464844-21.464843c-2.933594-2.933594-7.6875-2.933594-10.621094 0-2.933593 2.933593-2.933593 7.6875 0 10.621093l21.464844 21.464844-21.464844 21.464844c-2.933593 2.929688-2.933593 7.6875 0 10.621094 1.46875 1.464844 3.390625 2.199218 5.3125 2.199218s3.84375-.734374 5.308594-2.199218l21.464844-21.464844 21.460937 21.464844c1.46875 1.464844 3.390625 2.199218 5.3125 2.199218s3.84375-.734374 5.3125-2.199218c2.929688-2.933594 2.929688-7.691406 0-10.621094l-21.464844-21.464844 21.464844-21.464844c2.929688-2.933593 2.929688-7.6875 0-10.621093zm0 0" />
</svg>